<mxfile host="app.diagrams.net" modified="2024-03-22T00:11:42.301Z" agent="Mozilla/5.0 (Macintosh; Intel Mac OS X 10.15; rv:124.0) Gecko/20100101 Firefox/124.0" version="24.0.7" etag="exaK7qGlhw4ameuNAELa" type="github">
  <diagram name="Page-1" id="-_MHmMSYFcSHYsvgNQ9a">
    <mxGraphModel>
      <root>
        <mxCell id="0" />
        <mxCell id="1" parent="0" />
      </root>
    </mxGraphModel>
  </diagram>
</mxfile>
